<svg xmlns="http://www.w3.org/2000/svg" width="1200" height="630" viewBox="0 0 1200 630">
  <defs>
    <linearGradient id="bg" x1="0%" y1="0%" x2="100%" y2="100%">
      <stop offset="0%" stop-color="#0f172a"/>
      <stop offset="100%" stop-color="#1e1b4b"/>
    </linearGradient>
    <linearGradient id="accent" x1="0%" y1="0%" x2="100%" y2="0%">
      <stop offset="0%" stop-color="#6366f1"/>
      <stop offset="100%" stop-color="#8b5cf6"/>
    </linearGradient>
  </defs>
  <rect width="1200" height="630" fill="url(#bg)"/>
  <rect x="0" y="590" width="1200" height="40" fill="url(#accent)" opacity="0.8"/>

  <!-- Calculator icon in gradient box -->
  <rect x="80" y="160" width="80" height="80" rx="20" fill="url(#accent)"/>
  <g transform="translate(96,176) scale(2)" stroke="white" stroke-width="2" stroke-linecap="round" stroke-linejoin="round" fill="none">
    <rect x="2" y="2" width="20" height="20" rx="2"/>
    <line x1="8" y1="6" x2="16" y2="6"/>
    <line x1="16" y1="10" x2="16" y2="14"/>
    <line x1="14" y1="12" x2="18" y2="12"/>
    <line x1="8" y1="10" x2="8" y2="10" stroke-width="2.5"/>
    <line x1="12" y1="10" x2="12" y2="10" stroke-width="2.5"/>
    <line x1="8" y1="14" x2="8" y2="14" stroke-width="2.5"/>
    <line x1="12" y1="14" x2="12" y2="14" stroke-width="2.5"/>
    <line x1="8" y1="18" x2="8" y2="18" stroke-width="2.5"/>
    <line x1="12" y1="18" x2="12" y2="18" stroke-width="2.5"/>
    <line x1="14" y1="17" x2="18" y2="17"/>
    <line x1="14" y1="19" x2="18" y2="19"/>
  </g>

  <text x="80" y="310" font-family="system-ui,-apple-system,sans-serif" font-size="64" font-weight="800" fill="#fff">CryptoCalk</text>
  <text x="80" y="380" font-family="system-ui,-apple-system,sans-serif" font-size="28" fill="#94a3b8">Free Crypto Calculators &amp; Tools</text>
  <text x="80" y="440" font-family="system-ui,-apple-system,sans-serif" font-size="22" fill="#64748b">50+ calculators for profit, mining, DCA, tax, staking &amp; more</text>
  <text x="80" y="480" font-family="system-ui,-apple-system,sans-serif" font-size="22" fill="#64748b">No signup required  |  6 languages  |  100% free</text>
  <text x="1120" y="565" font-family="system-ui,-apple-system,sans-serif" font-size="20" fill="#475569" text-anchor="end">cryptocalk.com</text>
</svg>
